<svg width="24" height="24" viewBox="0 0 24 24" fill="none" xmlns="http://www.w3.org/2000/svg">
    <path d="M13.4143 11.9993L18.6955 6.7182C18.7884 6.62533 18.862 6.51508 18.9123 6.39373C18.9626 6.27239 18.9885 6.14232 18.9885 6.01097C18.9885 5.87962 18.9626 5.74956 18.9123 5.62821C18.862 5.50687 18.7884 5.39661 18.6955 5.30375C18.508 5.11648 18.2538 5.0113 17.9888 5.0113C17.7238 5.0113 17.4696 5.11648 17.2821 5.30375L11.9999 10.5849L6.71879 5.30375C6.62593 5.21086 6.51567 5.13717 6.39433 5.08689C6.27298 5.03662 6.14292 5.01074 6.01157 5.01074C5.88022 5.01074 5.75016 5.03662 5.62881 5.08689C5.50746 5.13717 5.39721 5.21086 5.30435 5.30375C5.21146 5.39661 5.13777 5.50687 5.0875 5.62821C5.03722 5.74956 5.01135 5.87962 5.01135 6.01097C5.01135 6.14232 5.03722 6.27239 5.0875 6.39373C5.13777 6.51508 5.21146 6.62533 5.30435 6.7182L10.5855 11.9993L5.31547 17.2704C5.1282 17.4579 5.02302 17.7121 5.02302 17.9771C5.02302 18.2421 5.1282 18.4963 5.31547 18.6838C5.50283 18.8713 5.75702 18.9769 6.02215 18.9771C6.15361 18.9771 6.28378 18.9512 6.40523 18.9009C6.52668 18.8506 6.63701 18.7768 6.72991 18.6838L11.9999 13.4138L17.2699 18.6838C17.3628 18.7768 17.4732 18.8506 17.5946 18.9009C17.7161 18.9512 17.8462 18.9771 17.9777 18.9771C18.2428 18.9769 18.497 18.8713 18.6844 18.6838C18.8716 18.4963 18.9768 18.2421 18.9768 17.9771C18.9768 17.7121 18.8716 17.4579 18.6844 17.2704L13.4143 11.9993Z" fill="black"/>
</svg>